<svg width="150" height="150" viewBox="0 0 150 150" fill="none" xmlns="http://www.w3.org/2000/svg">
<g id="Chats">
<path id="Vector" d="M126.562 46.875H107.812V28.125C107.812 25.6386 106.825 23.254 105.067 21.4959C103.308 19.7377 100.924 18.75 98.4375 18.75H23.4375C20.9511 18.75 18.5665 19.7377 16.8084 21.4959C15.0502 23.254 14.0625 25.6386 14.0625 28.125V103.125C14.0653 104.007 14.3167 104.87 14.788 105.615C15.2593 106.361 15.9313 106.958 16.7268 107.339C17.5224 107.719 18.4091 107.868 19.2852 107.767C20.1613 107.667 20.9913 107.321 21.6797 106.77L42.1875 90.2344V107.812C42.1875 110.299 43.1752 112.683 44.9334 114.442C46.6915 116.2 49.0761 117.188 51.5625 117.188H106.4L128.32 134.895C129.15 135.565 130.183 135.933 131.25 135.938C132.493 135.938 133.685 135.444 134.565 134.565C135.444 133.685 135.938 132.493 135.938 131.25V56.25C135.938 53.7636 134.95 51.379 133.192 49.6209C131.433 47.8627 129.049 46.875 126.562 46.875ZM38.9941 80.7305L23.4375 93.3105V28.125H98.4375V79.6875H41.9414C40.8686 79.6876 39.8283 80.0558 38.9941 80.7305ZM126.562 121.436L111.006 108.855C110.176 108.185 109.143 107.817 108.076 107.812H51.5625V89.0625H98.4375C100.924 89.0625 103.308 88.0748 105.067 86.3166C106.825 84.5585 107.812 82.1739 107.812 79.6875V56.25H126.562V121.436Z" fill="#64DDBB"/>
</g>
</svg>
