<svg width="150" height="150" viewBox="0 0 150 150" fill="none" xmlns="http://www.w3.org/2000/svg">
<g id="Signpost">
<path id="Vector" d="M144.141 62.4902L124.412 40.6055C123.533 39.6285 122.459 38.8472 121.259 38.3122C120.059 37.7772 118.759 37.5005 117.445 37.5H79.6875V18.75C79.6875 17.5068 79.1936 16.3145 78.3146 15.4354C77.4355 14.5564 76.2432 14.0625 75 14.0625C73.7568 14.0625 72.5645 14.5564 71.6854 15.4354C70.8064 16.3145 70.3125 17.5068 70.3125 18.75V37.5H23.4375C20.9511 37.5 18.5665 38.4877 16.8084 40.2459C15.0502 42.004 14.0625 44.3886 14.0625 46.875V84.375C14.0625 86.8614 15.0502 89.246 16.8084 91.0041C18.5665 92.7623 20.9511 93.75 23.4375 93.75H70.3125V131.25C70.3125 132.493 70.8064 133.685 71.6854 134.565C72.5645 135.444 73.7568 135.938 75 135.938C76.2432 135.938 77.4355 135.444 78.3146 134.565C79.1936 133.685 79.6875 132.493 79.6875 131.25V93.75H117.445C118.759 93.7495 120.059 93.4728 121.259 92.9378C122.459 92.4028 123.533 91.6215 124.412 90.6445L144.141 68.7598C144.915 67.8991 145.343 66.7825 145.343 65.625C145.343 64.4675 144.915 63.3509 144.141 62.4902ZM117.445 84.375H23.4375V46.875H117.445L134.32 65.625L117.445 84.375Z" fill="#64DDBB"/>
</g>
</svg>
